<?xml version="1.0" encoding="UTF-8" standalone="no" ?>
<!DOCTYPE svg PUBLIC "-//W3C//DTD SVG 1.1//EN" "http://www.w3.org/Graphics/SVG/1.1/DTD/svg11.dtd">
<svg xmlns="http://www.w3.org/2000/svg" xmlns:xlink="http://www.w3.org/1999/xlink" version="1.1" width="1080" height="1080" viewBox="0 0 1080 1080" xml:space="preserve">
<desc>Created with Fabric.js 5.2.4</desc>
<defs>
</defs>
<g transform="matrix(1 0 0 1 540 540)" id="52e12270-3656-451c-9029-ea480a8c4048"  >
</g>
<g transform="matrix(1 0 0 1 540 540)" id="b7b7e042-a1a7-4540-9d4f-3f9248702e97"  >
<rect style="stroke: none; stroke-width: 1; stroke-dasharray: none; stroke-linecap: butt; stroke-dashoffset: 0; stroke-linejoin: miter; stroke-miterlimit: 4; fill: rgb(255,255,255); fill-rule: nonzero; opacity: 1; visibility: hidden;" vector-effect="non-scaling-stroke"  x="-540" y="-540" rx="0" ry="0" width="1080" height="1080" />
</g>
<g transform="matrix(1 0 0 1 383.37 559.39)"  >
<path style="stroke: none; stroke-width: 1; stroke-dasharray: none; stroke-linecap: butt; stroke-dashoffset: 0; stroke-linejoin: miter; stroke-miterlimit: 4; fill: rgb(180,192,211); fill-rule: nonzero; opacity: 1;" vector-effect="non-scaling-stroke"  transform=" translate(-71.5, -106.83)" d="M 50.0391 99.9903 L 75.4125 88.6973 L 90.017 97.1671 L 92.9674 124.954 L 74.97 124.805 L 77.6253 105.488 L 74.5274 103.705 L 59.3328 115.593 L 50.0391 99.9903 Z" stroke-linecap="round" />
</g>
<g transform="matrix(1 0 0 1 419.16 540.07)"  >
<path style="stroke: none; stroke-width: 1; stroke-dasharray: none; stroke-linecap: butt; stroke-dashoffset: 0; stroke-linejoin: miter; stroke-miterlimit: 4; fill: rgb(0,211,171); fill-rule: nonzero; opacity: 1;" vector-effect="non-scaling-stroke"  transform=" translate(-107.28, -87.51)" d="M 91.6406 95.9774 L 114.064 112.471 L 122.915 96.5718 L 104.917 89.2907 L 104.917 85.7245 L 122.915 78.2948 L 114.064 62.5439 L 91.6406 79.0378 L 91.6406 95.9774 Z" stroke-linecap="round" />
</g>
<g transform="matrix(1 0 0 1 383.37 520.61)"  >
<path style="stroke: none; stroke-width: 1; stroke-dasharray: none; stroke-linecap: butt; stroke-dashoffset: 0; stroke-linejoin: miter; stroke-miterlimit: 4; fill: rgb(72,118,239); fill-rule: nonzero; opacity: 1;" vector-effect="non-scaling-stroke"  transform=" translate(-71.5, -68.04)" d="M 90.017 77.701 L 92.9674 49.9141 L 74.97 50.2112 L 77.6253 69.5284 L 74.5274 71.3115 L 59.1853 59.424 L 50.0391 74.8777 L 75.4125 86.1708 L 90.017 77.701 Z" stroke-linecap="round" />
</g>
<g transform="matrix(1 0 0 1 595.99 540)" style="" id="6ff3a330-31d0-43bb-acb4-db0dfa2b249c"  >
		<text xml:space="preserve" font-family="Raleway" font-size="74" font-style="normal" font-weight="900" style="stroke: none; stroke-width: 1; stroke-dasharray: none; stroke-linecap: butt; stroke-dashoffset: 0; stroke-linejoin: miter; stroke-miterlimit: 4; fill: rgb(76,94,203); fill-rule: nonzero; opacity: 1; white-space: pre;" ><tspan x="-149.07" y="23.25" >Auth 2.0</tspan></text>
</g>
</svg>