<svg width="706" height="249" viewBox="0 0 706 249" fill="none" xmlns="http://www.w3.org/2000/svg">
<mask id="path-1-inside-1_6_184" fill="white">
<path fill-rule="evenodd" clip-rule="evenodd" d="M12.8421 42.5089L88.3838 10.7609C93.8875 8.41302 100.363 8.41302 105.866 10.7609L181.408 42.5089C189.178 45.7755 194.25 53.1255 194.25 61.1901V109.169C194.25 165.826 152.81 218.807 97.125 231.669C41.44 218.807 0 165.826 0 109.169V61.1901C0 53.1255 5.07208 45.7755 12.8421 42.5089ZM101.254 119.276H97.125V102.454C99.7591 102.647 102.31 104.113 103.681 106.853L104.584 108.657C106.614 112.714 104.846 117.319 101.254 119.276ZM136.896 119.276L106.644 66.8776C104.501 63.1661 100.867 61.1765 97.125 60.9088V29.4422L21.5833 61.1901V119.378H55.5481L39.2506 147.606C34.6318 155.606 40.4053 165.606 49.6429 165.606H57.3507C61.6379 165.606 65.5994 163.319 67.743 159.606L75.6431 145.922C77.7867 142.21 81.7482 139.922 86.0354 139.922H97.125V210.538C137.27 198.798 166.947 161.334 172.667 119.276H136.896ZM97.125 120.237H97.4297C98.8413 120.237 100.136 119.884 101.254 119.276H136.896L153.252 147.606C157.871 155.606 152.097 165.606 142.86 165.606H135.67C131.383 165.606 127.421 163.319 125.278 159.606L117.378 145.922C115.234 142.21 111.273 139.922 106.985 139.922H97.125V120.237ZM97.125 120.237H95.6238C94.293 120.237 93.0664 119.924 91.9937 119.378H97.125V120.237ZM91.9937 119.378C88.2718 117.483 86.4033 112.786 88.4694 108.657L89.3724 106.853C90.9505 103.699 94.0927 102.233 97.125 102.454V60.9088C92.8018 60.5995 88.3349 62.5891 85.859 66.8776L55.5481 119.378H91.9937Z"/>
</mask>
<path fill-rule="evenodd" clip-rule="evenodd" d="M12.8421 42.5089L88.3838 10.7609C93.8875 8.41302 100.363 8.41302 105.866 10.7609L181.408 42.5089C189.178 45.7755 194.25 53.1255 194.25 61.1901V109.169C194.25 165.826 152.81 218.807 97.125 231.669C41.44 218.807 0 165.826 0 109.169V61.1901C0 53.1255 5.07208 45.7755 12.8421 42.5089ZM101.254 119.276H97.125V102.454C99.7591 102.647 102.31 104.113 103.681 106.853L104.584 108.657C106.614 112.714 104.846 117.319 101.254 119.276ZM136.896 119.276L106.644 66.8776C104.501 63.1661 100.867 61.1765 97.125 60.9088V29.4422L21.5833 61.1901V119.378H55.5481L39.2506 147.606C34.6318 155.606 40.4053 165.606 49.6429 165.606H57.3507C61.6379 165.606 65.5994 163.319 67.743 159.606L75.6431 145.922C77.7867 142.21 81.7482 139.922 86.0354 139.922H97.125V210.538C137.27 198.798 166.947 161.334 172.667 119.276H136.896ZM97.125 120.237H97.4297C98.8413 120.237 100.136 119.884 101.254 119.276H136.896L153.252 147.606C157.871 155.606 152.097 165.606 142.86 165.606H135.67C131.383 165.606 127.421 163.319 125.278 159.606L117.378 145.922C115.234 142.21 111.273 139.922 106.985 139.922H97.125V120.237ZM97.125 120.237H95.6238C94.293 120.237 93.0664 119.924 91.9937 119.378H97.125V120.237ZM91.9937 119.378C88.2718 117.483 86.4033 112.786 88.4694 108.657L89.3724 106.853C90.9505 103.699 94.0927 102.233 97.125 102.454V60.9088C92.8018 60.5995 88.3349 62.5891 85.859 66.8776L55.5481 119.378H91.9937Z" fill="#E4F1FF"/>
<path d="M88.3838 10.7609L88.7712 11.6828L88.7761 11.6807L88.3838 10.7609ZM12.8421 42.5089L12.4546 41.587L12.4545 41.587L12.8421 42.5089ZM105.866 10.7609L105.474 11.6808L105.479 11.6828L105.866 10.7609ZM181.408 42.5089L181.795 41.587L181.795 41.587L181.408 42.5089ZM97.125 231.669L96.8999 232.644L97.125 232.696L97.3501 232.644L97.125 231.669ZM97.125 119.276H96.125V120.276H97.125V119.276ZM103.681 106.853L104.575 106.405L104.575 106.405L103.681 106.853ZM104.584 108.657L103.69 109.105L103.69 109.105L104.584 108.657ZM106.644 66.8776L107.51 66.3776L107.51 66.3776L106.644 66.8776ZM97.125 29.4422H98.125V27.9372L96.7376 28.5203L97.125 29.4422ZM21.5833 61.1901L21.1959 60.2682L20.5833 60.5257V61.1901H21.5833ZM21.5833 119.378H20.5833V120.378H21.5833V119.378ZM39.2506 147.606L38.3846 147.106L38.3846 147.106L39.2506 147.606ZM67.743 159.606L68.6091 160.106L68.6091 160.106L67.743 159.606ZM75.6431 145.922L76.5091 146.422L76.5091 146.422L75.6431 145.922ZM97.125 210.538H96.125V211.872L97.4057 211.498L97.125 210.538ZM172.667 119.276L173.658 119.41L173.812 118.276H172.667V119.276ZM153.252 147.606L152.386 148.106L152.386 148.106L153.252 147.606ZM125.278 159.606L126.144 159.106L126.144 159.106L125.278 159.606ZM117.378 145.922L116.512 146.422L116.512 146.422L117.378 145.922ZM97.125 119.378H98.125V118.378H97.125V119.378ZM88.4694 108.657L87.5751 108.21L87.5751 108.21L88.4694 108.657ZM89.3724 106.853L90.2667 107.3L90.2667 107.3L89.3724 106.853ZM85.859 66.8776L86.725 67.3776L86.725 67.3776L85.859 66.8776ZM87.9963 9.83904L12.4546 41.587L13.2295 43.4307L88.7712 11.6828L87.9963 9.83904ZM106.259 9.84114C100.504 7.38629 93.7458 7.38629 87.9914 9.84114L88.7761 11.6807C94.0292 9.43975 100.221 9.43975 105.474 11.6807L106.259 9.84114ZM181.795 41.587L106.254 9.83904L105.479 11.6828L181.02 43.4307L181.795 41.587ZM195.25 61.1901C195.25 52.6971 189.912 44.9994 181.795 41.587L181.02 43.4307C188.444 46.5516 193.25 53.5539 193.25 61.1901H195.25ZM195.25 109.169V61.1901H193.25V109.169H195.25ZM97.3501 232.644C153.495 219.675 195.25 166.285 195.25 109.169H193.25C193.25 165.366 152.125 217.939 96.8999 230.695L97.3501 232.644ZM-1 109.169C-1 166.285 40.7555 219.675 96.8999 232.644L97.3501 230.695C42.1245 217.939 1 165.366 1 109.169H-1ZM-1 61.1901V109.169H1V61.1901H-1ZM12.4545 41.587C4.33786 44.9994 -1 52.6971 -1 61.1901H1C1 53.5539 5.80631 46.5516 13.2296 43.4307L12.4545 41.587ZM97.125 120.276H101.254V118.276H97.125V120.276ZM96.125 102.454V119.276H98.125V102.454H96.125ZM104.575 106.405C103.035 103.326 100.156 101.673 97.1979 101.457L97.0521 103.452C99.3623 103.621 101.586 104.9 102.787 107.3L104.575 106.405ZM105.478 108.21L104.575 106.405L102.787 107.3L103.69 109.105L105.478 108.21ZM101.732 120.154C105.766 117.956 107.765 112.78 105.478 108.21L103.69 109.105C105.463 112.648 103.926 116.681 100.775 118.397L101.732 120.154ZM105.778 67.3776L136.03 119.776L137.762 118.776L107.51 66.3776L105.778 67.3776ZM97.0536 61.9063C100.487 62.1519 103.812 63.973 105.778 67.3776L107.51 66.3776C105.19 62.3591 101.246 60.201 97.1964 59.9114L97.0536 61.9063ZM96.125 29.4422V60.9088H98.125V29.4422H96.125ZM21.9708 62.112L97.5124 30.3641L96.7376 28.5203L21.1959 60.2682L21.9708 62.112ZM22.5833 119.378V61.1901H20.5833V119.378H22.5833ZM55.5481 118.378H21.5833V120.378H55.5481V118.378ZM40.1166 148.106L56.4141 119.878L54.6821 118.878L38.3846 147.106L40.1166 148.106ZM49.6429 164.606C41.1751 164.606 35.8827 155.439 40.1166 148.106L38.3846 147.106C33.3809 155.772 39.6355 166.606 49.6429 166.606V164.606ZM57.3507 164.606H49.6429V166.606H57.3507V164.606ZM66.877 159.106C64.9121 162.509 61.2807 164.606 57.3507 164.606V166.606C61.9952 166.606 66.2868 164.128 68.6091 160.106L66.877 159.106ZM74.7771 145.422L66.877 159.106L68.6091 160.106L76.5091 146.422L74.7771 145.422ZM86.0354 138.922C81.3909 138.922 77.0993 141.4 74.7771 145.422L76.5091 146.422C78.4741 143.019 82.1055 140.922 86.0354 140.922V138.922ZM97.125 138.922H86.0354V140.922H97.125V138.922ZM98.125 210.538V139.922H96.125V210.538H98.125ZM171.676 119.141C166.004 160.849 136.572 197.961 96.8443 209.578L97.4057 211.498C137.968 199.636 167.89 161.819 173.658 119.41L171.676 119.141ZM136.896 120.276H172.667V118.276H136.896V120.276ZM97.125 121.237H97.4297V119.237H97.125V121.237ZM97.4297 121.237C99.0111 121.237 100.47 120.841 101.732 120.154L100.775 118.397C99.8019 118.928 98.6716 119.237 97.4297 119.237V121.237ZM101.254 120.276H136.896V118.276H101.254V120.276ZM136.03 119.776L152.386 148.106L154.118 147.106L137.762 118.776L136.03 119.776ZM152.386 148.106C156.62 155.439 151.327 164.606 142.86 164.606V166.606C152.867 166.606 159.122 155.772 154.118 147.106L152.386 148.106ZM142.86 164.606H135.67V166.606H142.86V164.606ZM135.67 164.606C131.74 164.606 128.109 162.509 126.144 159.106L124.412 160.106C126.734 164.128 131.026 166.606 135.67 166.606V164.606ZM126.144 159.106L118.244 145.422L116.512 146.422L124.412 160.106L126.144 159.106ZM118.244 145.422C115.921 141.4 111.63 138.922 106.985 138.922V140.922C110.915 140.922 114.547 143.019 116.512 146.422L118.244 145.422ZM106.985 138.922H97.125V140.922H106.985V138.922ZM98.125 139.922V120.237H96.125V139.922H98.125ZM95.6238 121.237H97.125V119.237H95.6238V121.237ZM91.54 120.269C92.7514 120.885 94.1333 121.237 95.6238 121.237V119.237C94.4528 119.237 93.3814 118.962 92.4473 118.486L91.54 120.269ZM97.125 118.378H91.9937V120.378H97.125V118.378ZM98.125 120.237V119.378H96.125V120.237H98.125ZM87.5751 108.21C85.2476 112.861 87.3596 118.141 91.54 120.269L92.4473 118.486C89.1839 116.825 87.5589 112.712 89.3637 109.105L87.5751 108.21ZM88.4781 106.405L87.5751 108.21L89.3637 109.105L90.2667 107.3L88.4781 106.405ZM97.1979 101.457C93.7993 101.209 90.2538 102.856 88.4781 106.405L90.2667 107.3C91.6472 104.541 94.3861 103.257 97.0521 103.452L97.1979 101.457ZM96.125 60.9088V102.454H98.125V60.9088H96.125ZM86.725 67.3776C88.9943 63.447 93.0811 61.6221 97.0536 61.9063L97.1964 59.9114C92.5224 59.577 87.6755 61.7313 84.993 66.3776L86.725 67.3776ZM56.4141 119.878L86.725 67.3776L84.993 66.3776L54.6821 118.878L56.4141 119.878ZM91.9937 118.378H55.5481V120.378H91.9937V118.378Z" fill="#E4F1FF" mask="url(#path-1-inside-1_6_184)"/>
<mask id="path-3-outside-2_6_184" maskUnits="userSpaceOnUse" x="221" y="171" width="147" height="62" fill="black">
<rect fill="white" x="221" y="171" width="147" height="62"/>
<path d="M223.56 231V209.4C223.56 207.587 223.987 205.96 224.84 204.52C225.693 203.027 226.84 201.853 228.28 201C229.773 200.147 231.427 199.72 233.24 199.72H272.04C272.893 199.72 273.613 199.427 274.2 198.84C274.84 198.2 275.16 197.453 275.16 196.6V183.08C275.16 182.227 274.84 181.507 274.2 180.92C273.613 180.28 272.893 179.96 272.04 179.96H233.24C232.387 179.96 231.64 180.28 231 180.92C230.413 181.507 230.12 182.227 230.12 183.08V185.32H223.56V183.08C223.56 181.267 223.987 179.64 224.84 178.2C225.693 176.707 226.84 175.533 228.28 174.68C229.773 173.773 231.427 173.32 233.24 173.32H272.04C273.8 173.32 275.4 173.773 276.84 174.68C278.333 175.533 279.507 176.707 280.36 178.2C281.267 179.64 281.72 181.267 281.72 183.08V196.6C281.72 198.36 281.267 199.987 280.36 201.48C279.507 202.92 278.333 204.093 276.84 205C275.4 205.853 273.8 206.28 272.04 206.28H233.24C232.387 206.28 231.64 206.6 231 207.24C230.413 207.827 230.12 208.547 230.12 209.4V221.32C230.12 222.173 230.413 222.92 231 223.56C231.64 224.147 232.387 224.44 233.24 224.44H281.72V231H223.56ZM289.726 231V224.44H296.286V231H289.726ZM316.756 231C314.942 231 313.289 230.573 311.796 229.72C310.356 228.813 309.209 227.64 308.356 226.2C307.502 224.707 307.076 223.08 307.076 221.32V183.16C307.076 181.347 307.502 179.72 308.356 178.28C309.209 176.787 310.356 175.613 311.796 174.76C313.289 173.853 314.942 173.4 316.756 173.4H355.556C357.316 173.4 358.916 173.853 360.356 174.76C361.849 175.613 363.022 176.787 363.876 178.28C364.782 179.72 365.236 181.347 365.236 183.16V221.32C365.236 223.08 364.782 224.707 363.876 226.2C363.022 227.64 361.849 228.813 360.356 229.72C358.916 230.573 357.316 231 355.556 231H316.756ZM314.436 224.44H355.556C356.409 224.44 357.129 224.147 357.716 223.56C358.356 222.92 358.676 222.173 358.676 221.32V187.96L314.436 224.44ZM313.636 216.52L357.796 180.04H316.756C315.902 180.04 315.156 180.36 314.516 181C313.929 181.587 313.636 182.307 313.636 183.16V216.52Z"/>
</mask>
<path d="M223.56 231V209.4C223.56 207.587 223.987 205.96 224.84 204.52C225.693 203.027 226.84 201.853 228.28 201C229.773 200.147 231.427 199.72 233.24 199.72H272.04C272.893 199.72 273.613 199.427 274.2 198.84C274.84 198.2 275.16 197.453 275.16 196.6V183.08C275.16 182.227 274.84 181.507 274.2 180.92C273.613 180.28 272.893 179.96 272.04 179.96H233.24C232.387 179.96 231.64 180.28 231 180.92C230.413 181.507 230.12 182.227 230.12 183.08V185.32H223.56V183.08C223.56 181.267 223.987 179.64 224.84 178.2C225.693 176.707 226.84 175.533 228.28 174.68C229.773 173.773 231.427 173.32 233.24 173.32H272.04C273.8 173.32 275.4 173.773 276.84 174.68C278.333 175.533 279.507 176.707 280.36 178.2C281.267 179.64 281.72 181.267 281.72 183.08V196.6C281.72 198.36 281.267 199.987 280.36 201.48C279.507 202.92 278.333 204.093 276.84 205C275.4 205.853 273.8 206.28 272.04 206.28H233.24C232.387 206.28 231.64 206.6 231 207.24C230.413 207.827 230.12 208.547 230.12 209.4V221.32C230.12 222.173 230.413 222.92 231 223.56C231.64 224.147 232.387 224.44 233.24 224.44H281.72V231H223.56ZM289.726 231V224.44H296.286V231H289.726ZM316.756 231C314.942 231 313.289 230.573 311.796 229.72C310.356 228.813 309.209 227.64 308.356 226.2C307.502 224.707 307.076 223.08 307.076 221.32V183.16C307.076 181.347 307.502 179.72 308.356 178.28C309.209 176.787 310.356 175.613 311.796 174.76C313.289 173.853 314.942 173.4 316.756 173.4H355.556C357.316 173.4 358.916 173.853 360.356 174.76C361.849 175.613 363.022 176.787 363.876 178.28C364.782 179.72 365.236 181.347 365.236 183.16V221.32C365.236 223.08 364.782 224.707 363.876 226.2C363.022 227.64 361.849 228.813 360.356 229.72C358.916 230.573 357.316 231 355.556 231H316.756ZM314.436 224.44H355.556C356.409 224.44 357.129 224.147 357.716 223.56C358.356 222.92 358.676 222.173 358.676 221.32V187.96L314.436 224.44ZM313.636 216.52L357.796 180.04H316.756C315.902 180.04 315.156 180.36 314.516 181C313.929 181.587 313.636 182.307 313.636 183.16V216.52Z" fill="#E4F1FF"/>
<path d="M223.56 231H221.56V233H223.56V231ZM224.84 204.52L226.561 205.54L226.569 205.526L226.576 205.512L224.84 204.52ZM228.28 201L227.288 199.264L227.274 199.271L227.26 199.279L228.28 201ZM274.2 198.84L275.614 200.254L275.614 200.254L274.2 198.84ZM274.2 180.92L272.726 182.271L272.784 182.336L272.849 182.394L274.2 180.92ZM231 180.92L229.586 179.506L229.586 179.506L231 180.92ZM230.12 185.32V187.32H232.12V185.32H230.12ZM223.56 185.32H221.56V187.32H223.56V185.32ZM224.84 178.2L226.561 179.22L226.569 179.206L226.576 179.192L224.84 178.2ZM228.28 174.68L229.3 176.401L229.309 176.395L229.318 176.39L228.28 174.68ZM276.84 174.68L275.774 176.372L275.811 176.395L275.848 176.416L276.84 174.68ZM280.36 178.2L278.624 179.192L278.645 179.229L278.668 179.266L280.36 178.2ZM280.36 201.48L278.65 200.442L278.645 200.451L278.639 200.46L280.36 201.48ZM276.84 205L277.86 206.721L277.869 206.715L277.878 206.71L276.84 205ZM231 207.24L229.586 205.826L229.586 205.826L231 207.24ZM231 223.56L229.526 224.911L229.584 224.976L229.649 225.034L231 223.56ZM281.72 224.44H283.72V222.44H281.72V224.44ZM281.72 231V233H283.72V231H281.72ZM225.56 231V209.4H221.56V231H225.56ZM225.56 209.4C225.56 207.915 225.905 206.645 226.561 205.54L223.119 203.5C222.068 205.275 221.56 207.259 221.56 209.4H225.56ZM226.576 205.512C227.263 204.311 228.166 203.392 229.3 202.721L227.26 199.279C225.514 200.314 224.124 201.742 223.104 203.528L226.576 205.512ZM229.272 202.736C230.447 202.065 231.755 201.72 233.24 201.72V197.72C231.098 197.72 229.1 198.228 227.288 199.264L229.272 202.736ZM233.24 201.72H272.04V197.72H233.24V201.72ZM272.04 201.72C273.407 201.72 274.641 201.228 275.614 200.254L272.786 197.426C272.586 197.626 272.38 197.72 272.04 197.72V201.72ZM275.614 200.254C276.604 199.264 277.16 198.018 277.16 196.6H273.16C273.16 196.888 273.076 197.136 272.786 197.426L275.614 200.254ZM277.16 196.6V183.08H273.16V196.6H277.16ZM277.16 183.08C277.16 181.655 276.597 180.404 275.551 179.446L272.849 182.394C273.083 182.61 273.16 182.798 273.16 183.08H277.16ZM275.674 179.569C274.716 178.523 273.465 177.96 272.04 177.96V181.96C272.322 181.96 272.51 182.037 272.726 182.271L275.674 179.569ZM272.04 177.96H233.24V181.96H272.04V177.96ZM233.24 177.96C231.822 177.96 230.576 178.516 229.586 179.506L232.414 182.334C232.704 182.044 232.952 181.96 233.24 181.96V177.96ZM229.586 179.506C228.612 180.479 228.12 181.713 228.12 183.08H232.12C232.12 182.74 232.214 182.534 232.414 182.334L229.586 179.506ZM228.12 183.08V185.32H232.12V183.08H228.12ZM230.12 183.32H223.56V187.32H230.12V183.32ZM225.56 185.32V183.08H221.56V185.32H225.56ZM225.56 183.08C225.56 181.595 225.905 180.325 226.561 179.22L223.119 177.18C222.068 178.955 221.56 180.939 221.56 183.08H225.56ZM226.576 179.192C227.263 177.991 228.166 177.072 229.3 176.401L227.26 172.959C225.514 173.994 224.124 175.422 223.104 177.208L226.576 179.192ZM229.318 176.39C230.486 175.68 231.778 175.32 233.24 175.32V171.32C231.075 171.32 229.06 171.866 227.242 172.97L229.318 176.39ZM233.24 175.32H272.04V171.32H233.24V175.32ZM272.04 175.32C273.437 175.32 274.665 175.674 275.774 176.372L277.906 172.988C276.135 171.873 274.163 171.32 272.04 171.32V175.32ZM275.848 176.416C277.031 177.093 277.947 178.009 278.624 179.192L282.096 177.208C281.066 175.404 279.636 173.974 277.832 172.944L275.848 176.416ZM278.668 179.266C279.36 180.365 279.72 181.618 279.72 183.08H283.72C283.72 180.915 283.173 178.915 282.052 177.134L278.668 179.266ZM279.72 183.08V196.6H283.72V183.08H279.72ZM279.72 196.6C279.72 197.997 279.366 199.264 278.65 200.442L282.07 202.518C283.168 200.709 283.72 198.723 283.72 196.6H279.72ZM278.639 200.46C277.961 201.605 277.027 202.547 275.802 203.29L277.878 206.71C279.639 205.64 281.052 204.235 282.081 202.5L278.639 200.46ZM275.82 203.279C274.705 203.94 273.46 204.28 272.04 204.28V208.28C274.14 208.28 276.095 207.766 277.86 206.721L275.82 203.279ZM272.04 204.28H233.24V208.28H272.04V204.28ZM233.24 204.28C231.822 204.28 230.576 204.836 229.586 205.826L232.414 208.654C232.704 208.364 232.952 208.28 233.24 208.28V204.28ZM229.586 205.826C228.612 206.799 228.12 208.033 228.12 209.4H232.12C232.12 209.06 232.214 208.854 232.414 208.654L229.586 205.826ZM228.12 209.4V221.32H232.12V209.4H228.12ZM228.12 221.32C228.12 222.683 228.607 223.91 229.526 224.911L232.474 222.209C232.219 221.93 232.12 221.663 232.12 221.32H228.12ZM229.649 225.034C230.65 225.953 231.877 226.44 233.24 226.44V222.44C232.897 222.44 232.63 222.341 232.351 222.086L229.649 225.034ZM233.24 226.44H281.72V222.44H233.24V226.44ZM279.72 224.44V231H283.72V224.44H279.72ZM281.72 229H223.56V233H281.72V229ZM289.726 231H287.726V233H289.726V231ZM289.726 224.44V222.44H287.726V224.44H289.726ZM296.286 224.44H298.286V222.44H296.286V224.44ZM296.286 231V233H298.286V231H296.286ZM291.726 231V224.44H287.726V231H291.726ZM289.726 226.44H296.286V222.44H289.726V226.44ZM294.286 224.44V231H298.286V224.44H294.286ZM296.286 229H289.726V233H296.286V229ZM311.796 229.72L310.73 231.412L310.766 231.435L310.803 231.456L311.796 229.72ZM308.356 226.2L306.619 227.192L306.627 227.206L306.635 227.22L308.356 226.2ZM308.356 178.28L310.076 179.3L310.084 179.286L310.092 179.272L308.356 178.28ZM311.796 174.76L312.815 176.481L312.824 176.475L312.834 176.47L311.796 174.76ZM360.356 174.76L359.29 176.452L359.326 176.475L359.363 176.496L360.356 174.76ZM363.876 178.28L362.139 179.272L362.16 179.309L362.183 179.346L363.876 178.28ZM363.876 226.2L362.166 225.162L362.161 225.171L362.155 225.18L363.876 226.2ZM360.356 229.72L361.375 231.441L361.384 231.435L361.394 231.43L360.356 229.72ZM314.436 224.44L313.163 222.897L308.867 226.44H314.436V224.44ZM357.716 223.56L359.13 224.974L359.13 224.974L357.716 223.56ZM358.676 187.96H360.676V183.719L357.403 186.417L358.676 187.96ZM313.636 216.52H311.636V220.766L314.909 218.062L313.636 216.52ZM357.796 180.04L359.069 181.582L363.357 178.04H357.796V180.04ZM314.516 181L315.93 182.414L315.93 182.414L314.516 181ZM316.756 229C315.271 229 313.962 228.655 312.788 227.984L310.803 231.456C312.615 232.492 314.614 233 316.756 233V229ZM312.861 228.028C311.685 227.287 310.765 226.343 310.076 225.18L306.635 227.22C307.653 228.937 309.026 230.34 310.73 231.412L312.861 228.028ZM310.092 225.208C309.416 224.024 309.076 222.74 309.076 221.32H305.076C305.076 223.42 305.589 225.389 306.619 227.192L310.092 225.208ZM309.076 221.32V183.16H305.076V221.32H309.076ZM309.076 183.16C309.076 181.675 309.421 180.405 310.076 179.3L306.635 177.26C305.584 179.035 305.076 181.019 305.076 183.16H309.076ZM310.092 179.272C310.779 178.071 311.682 177.152 312.815 176.481L310.776 173.039C309.03 174.074 307.639 175.502 306.619 177.288L310.092 179.272ZM312.834 176.47C314.002 175.76 315.294 175.4 316.756 175.4V171.4C314.591 171.4 312.576 171.946 310.758 173.05L312.834 176.47ZM316.756 175.4H355.556V171.4H316.756V175.4ZM355.556 175.4C356.952 175.4 358.18 175.754 359.29 176.452L361.421 173.068C359.651 171.953 357.679 171.4 355.556 171.4V175.4ZM359.363 176.496C360.547 177.173 361.463 178.089 362.139 179.272L365.612 177.288C364.582 175.484 363.151 174.054 361.348 173.024L359.363 176.496ZM362.183 179.346C362.876 180.445 363.236 181.698 363.236 183.16H367.236C367.236 180.995 366.689 178.995 365.568 177.214L362.183 179.346ZM363.236 183.16V221.32H367.236V183.16H363.236ZM363.236 221.32C363.236 222.717 362.881 223.984 362.166 225.162L365.585 227.238C366.683 225.429 367.236 223.443 367.236 221.32H363.236ZM362.155 225.18C361.477 226.325 360.543 227.267 359.318 228.01L361.394 231.43C363.155 230.36 364.568 228.955 365.596 227.22L362.155 225.18ZM359.336 227.999C358.221 228.66 356.976 229 355.556 229V233C357.655 233 359.61 232.486 361.375 231.441L359.336 227.999ZM355.556 229H316.756V233H355.556V229ZM314.436 226.44H355.556V222.44H314.436V226.44ZM355.556 226.44C356.922 226.44 358.156 225.948 359.13 224.974L356.301 222.146C356.102 222.346 355.895 222.44 355.556 222.44V226.44ZM359.13 224.974C360.12 223.984 360.676 222.738 360.676 221.32H356.676C356.676 221.608 356.592 221.856 356.301 222.146L359.13 224.974ZM360.676 221.32V187.96H356.676V221.32H360.676ZM357.403 186.417L313.163 222.897L315.708 225.983L359.948 189.503L357.403 186.417ZM314.909 218.062L359.069 181.582L356.522 178.498L312.362 214.978L314.909 218.062ZM357.796 178.04H316.756V182.04H357.796V178.04ZM316.756 178.04C315.337 178.04 314.091 178.596 313.101 179.586L315.93 182.414C316.22 182.124 316.467 182.04 316.756 182.04V178.04ZM313.101 179.586C312.128 180.559 311.636 181.793 311.636 183.16H315.636C315.636 182.82 315.73 182.614 315.93 182.414L313.101 179.586ZM311.636 183.16V216.52H315.636V183.16H311.636Z" fill="#E4F1FF" mask="url(#path-3-outside-2_6_184)"/>
<mask id="path-5-outside-3_6_184" maskUnits="userSpaceOnUse" x="225" y="34" width="383" height="120" fill="black">
<rect fill="white" x="225" y="34" width="383" height="120"/>
<path d="M227.7 152V62C227.7 58.7 228.5 55.7 230.1 53C231.7 50.2 233.85 48 236.55 46.4C239.35 44.8 242.4 44 245.7 44H317.7C321 44 324 44.8 326.7 46.4C329.5 48 331.7 50.2 333.3 53C334.9 55.7 335.7 58.7 335.7 62V152H323.55V112.55H239.85V152H227.7ZM239.85 100.4H323.55V62C323.55 60.4 322.95 59.05 321.75 57.95C320.65 56.75 319.3 56.15 317.7 56.15H245.7C244.1 56.15 242.7 56.75 241.5 57.95C240.4 59.05 239.85 60.4 239.85 62V100.4ZM370.491 152C367.191 152 364.141 151.2 361.341 149.6C358.641 147.9 356.441 145.7 354.741 143C353.141 140.2 352.341 137.15 352.341 133.85V65H364.641V133.85C364.641 135.45 365.191 136.85 366.291 138.05C367.491 139.15 368.891 139.7 370.491 139.7H422.691C424.291 139.7 425.691 139.15 426.891 138.05C428.091 136.85 428.691 135.45 428.691 133.85V65H440.991V133.85C440.991 137.15 440.141 140.2 438.441 143C436.841 145.7 434.641 147.9 431.841 149.6C429.141 151.2 426.091 152 422.691 152H370.491ZM472.59 152C469.19 152 466.09 151.2 463.29 149.6C460.59 147.9 458.44 145.7 456.84 143C455.24 140.2 454.44 137.15 454.44 133.85V36.5H466.74V65H504.39V77.3H466.74V133.85C466.74 135.45 467.29 136.85 468.39 138.05C469.59 139.15 470.99 139.7 472.59 139.7H504.39V152H472.59ZM516.846 152V36.5H529.146V65H587.346C590.646 65 593.646 65.85 596.346 67.55C599.146 69.15 601.346 71.35 602.946 74.15C604.646 76.85 605.496 79.85 605.496 83.15V152H593.196V83.15C593.196 81.55 592.596 80.2 591.396 79.1C590.296 77.9 588.946 77.3 587.346 77.3H535.146C533.546 77.3 532.146 77.9 530.946 79.1C529.746 80.2 529.146 81.55 529.146 83.15V152H516.846Z"/>
</mask>
<path d="M227.7 152V62C227.7 58.7 228.5 55.7 230.1 53C231.7 50.2 233.85 48 236.55 46.4C239.35 44.8 242.4 44 245.7 44H317.7C321 44 324 44.8 326.7 46.4C329.5 48 331.7 50.2 333.3 53C334.9 55.7 335.7 58.7 335.7 62V152H323.55V112.55H239.85V152H227.7ZM239.85 100.4H323.55V62C323.55 60.4 322.95 59.05 321.75 57.95C320.65 56.75 319.3 56.15 317.7 56.15H245.7C244.1 56.15 242.7 56.75 241.5 57.95C240.4 59.05 239.85 60.4 239.85 62V100.4ZM370.491 152C367.191 152 364.141 151.2 361.341 149.6C358.641 147.9 356.441 145.7 354.741 143C353.141 140.2 352.341 137.15 352.341 133.85V65H364.641V133.85C364.641 135.45 365.191 136.85 366.291 138.05C367.491 139.15 368.891 139.7 370.491 139.7H422.691C424.291 139.7 425.691 139.15 426.891 138.05C428.091 136.85 428.691 135.45 428.691 133.85V65H440.991V133.85C440.991 137.15 440.141 140.2 438.441 143C436.841 145.7 434.641 147.9 431.841 149.6C429.141 151.2 426.091 152 422.691 152H370.491ZM472.59 152C469.19 152 466.09 151.2 463.29 149.6C460.59 147.9 458.44 145.7 456.84 143C455.24 140.2 454.44 137.15 454.44 133.85V36.5H466.74V65H504.39V77.3H466.74V133.85C466.74 135.45 467.29 136.85 468.39 138.05C469.59 139.15 470.99 139.7 472.59 139.7H504.39V152H472.59ZM516.846 152V36.5H529.146V65H587.346C590.646 65 593.646 65.85 596.346 67.55C599.146 69.15 601.346 71.35 602.946 74.15C604.646 76.85 605.496 79.85 605.496 83.15V152H593.196V83.15C593.196 81.55 592.596 80.2 591.396 79.1C590.296 77.9 588.946 77.3 587.346 77.3H535.146C533.546 77.3 532.146 77.9 530.946 79.1C529.746 80.2 529.146 81.55 529.146 83.15V152H516.846Z" fill="#E4F1FF"/>
<path d="M227.7 152H225.7V154H227.7V152ZM230.1 53L231.821 54.0196L231.829 54.006L231.836 53.9923L230.1 53ZM236.55 46.4L235.558 44.6635L235.544 44.6713L235.53 44.6794L236.55 46.4ZM326.7 46.4L325.68 48.1206L325.694 48.1286L325.708 48.1365L326.7 46.4ZM333.3 53L331.564 53.9923L331.571 54.006L331.579 54.0196L333.3 53ZM335.7 152V154H337.7V152H335.7ZM323.55 152H321.55V154H323.55V152ZM323.55 112.55H325.55V110.55H323.55V112.55ZM239.85 112.55V110.55H237.85V112.55H239.85ZM239.85 152V154H241.85V152H239.85ZM239.85 100.4H237.85V102.4H239.85V100.4ZM323.55 100.4V102.4H325.55V100.4H323.55ZM321.75 57.95L320.276 59.3014L320.334 59.3655L320.399 59.4243L321.75 57.95ZM241.5 57.95L242.914 59.3642L242.914 59.3642L241.5 57.95ZM229.7 152V62H225.7V152H229.7ZM229.7 62C229.7 59.0395 230.413 56.3948 231.821 54.0196L228.379 51.9804C226.587 55.0052 225.7 58.3605 225.7 62H229.7ZM231.836 53.9923C233.27 51.4844 235.176 49.539 237.57 48.1206L235.53 44.6794C232.524 46.461 230.13 48.9156 228.364 52.0077L231.836 53.9923ZM237.542 48.1365C240.033 46.7133 242.74 46 245.7 46V42C242.06 42 238.667 42.8867 235.558 44.6635L237.542 48.1365ZM245.7 46H317.7V42H245.7V46ZM317.7 46C320.66 46 323.305 46.7131 325.68 48.1206L327.72 44.6794C324.695 42.8869 321.34 42 317.7 42V46ZM325.708 48.1365C328.198 49.5593 330.141 51.5023 331.564 53.9923L335.036 52.0077C333.259 48.8977 330.802 46.4407 327.692 44.6635L325.708 48.1365ZM331.579 54.0196C332.987 56.3948 333.7 59.0395 333.7 62H337.7C337.7 58.3605 336.813 55.0052 335.021 51.9804L331.579 54.0196ZM333.7 62V152H337.7V62H333.7ZM335.7 150H323.55V154H335.7V150ZM325.55 152V112.55H321.55V152H325.55ZM323.55 110.55H239.85V114.55H323.55V110.55ZM237.85 112.55V152H241.85V112.55H237.85ZM239.85 150H227.7V154H239.85V150ZM239.85 102.4H323.55V98.4H239.85V102.4ZM325.55 100.4V62H321.55V100.4H325.55ZM325.55 62C325.55 59.8284 324.707 57.947 323.101 56.4757L320.399 59.4243C321.193 60.153 321.55 60.9716 321.55 62H325.55ZM323.224 56.5985C321.753 54.9935 319.872 54.15 317.7 54.15V58.15C318.728 58.15 319.547 58.5065 320.276 59.3014L323.224 56.5985ZM317.7 54.15H245.7V58.15H317.7V54.15ZM245.7 54.15C243.535 54.15 241.636 54.986 240.086 56.5358L242.914 59.3642C243.764 58.514 244.665 58.15 245.7 58.15V54.15ZM240.086 56.5358C238.599 58.0227 237.85 59.8865 237.85 62H241.85C241.85 60.9135 242.201 60.0773 242.914 59.3642L240.086 56.5358ZM237.85 62V100.4H241.85V62H237.85ZM361.341 149.6L360.275 151.292L360.311 151.315L360.348 151.336L361.341 149.6ZM354.741 143L353.004 143.992L353.025 144.029L353.048 144.066L354.741 143ZM352.341 65V63H350.341V65H352.341ZM364.641 65H366.641V63H364.641V65ZM366.291 138.05L364.816 139.401L364.875 139.466L364.939 139.524L366.291 138.05ZM426.891 138.05L428.242 139.524L428.274 139.495L428.305 139.464L426.891 138.05ZM428.691 65V63H426.691V65H428.691ZM440.991 65H442.991V63H440.991V65ZM438.441 143L436.731 141.962L436.726 141.971L436.72 141.98L438.441 143ZM431.841 149.6L432.86 151.321L432.869 151.315L432.879 151.31L431.841 149.6ZM370.491 150C367.53 150 364.823 149.287 362.333 147.864L360.348 151.336C363.458 153.113 366.851 154 370.491 154V150ZM362.406 147.908C359.959 146.367 357.974 144.381 356.433 141.934L353.048 144.066C354.908 147.019 357.322 149.433 360.275 151.292L362.406 147.908ZM356.477 142.008C355.054 139.517 354.341 136.81 354.341 133.85H350.341C350.341 137.49 351.227 140.883 353.004 143.992L356.477 142.008ZM354.341 133.85V65H350.341V133.85H354.341ZM352.341 67H364.641V63H352.341V67ZM362.641 65V133.85H366.641V65H362.641ZM362.641 133.85C362.641 135.96 363.385 137.84 364.816 139.401L367.765 136.699C366.997 135.86 366.641 134.94 366.641 133.85H362.641ZM364.939 139.524C366.501 140.956 368.381 141.7 370.491 141.7V137.7C369.401 137.7 368.48 137.344 367.642 136.576L364.939 139.524ZM370.491 141.7H422.691V137.7H370.491V141.7ZM422.691 141.7C424.801 141.7 426.68 140.956 428.242 139.524L425.539 136.576C424.701 137.344 423.781 137.7 422.691 137.7V141.7ZM428.305 139.464C429.855 137.914 430.691 136.015 430.691 133.85H426.691C426.691 134.885 426.327 135.786 425.476 136.636L428.305 139.464ZM430.691 133.85V65H426.691V133.85H430.691ZM428.691 67H440.991V63H428.691V67ZM438.991 65V133.85H442.991V65H438.991ZM438.991 133.85C438.991 136.787 438.24 139.477 436.731 141.962L440.15 144.038C442.042 140.923 442.991 137.513 442.991 133.85H438.991ZM436.72 141.98C435.295 144.385 433.335 146.353 430.803 147.89L432.879 151.31C435.947 149.447 438.386 147.015 440.161 144.02L436.72 141.98ZM430.821 147.879C428.455 149.281 425.763 150 422.691 150V154C426.418 154 429.826 153.119 432.86 151.321L430.821 147.879ZM422.691 150H370.491V154H422.691V150ZM463.29 149.6L462.225 151.292L462.261 151.315L462.298 151.336L463.29 149.6ZM456.84 143L455.104 143.992L455.112 144.006L455.12 144.02L456.84 143ZM454.44 36.5V34.5H452.44V36.5H454.44ZM466.74 36.5H468.74V34.5H466.74V36.5ZM466.74 65H464.74V67H466.74V65ZM504.39 65H506.39V63H504.39V65ZM504.39 77.3V79.3H506.39V77.3H504.39ZM466.74 77.3V75.3H464.74V77.3H466.74ZM468.39 138.05L466.916 139.401L466.975 139.466L467.039 139.524L468.39 138.05ZM504.39 139.7H506.39V137.7H504.39V139.7ZM504.39 152V154H506.39V152H504.39ZM472.59 150C469.519 150 466.764 149.281 464.283 147.864L462.298 151.336C465.417 153.119 468.862 154 472.59 154V150ZM464.356 147.908C461.92 146.374 459.996 144.403 458.561 141.98L455.12 144.02C456.884 146.997 459.261 149.426 462.225 151.292L464.356 147.908ZM458.577 142.008C457.154 139.517 456.44 136.81 456.44 133.85H452.44C452.44 137.49 453.327 140.883 455.104 143.992L458.577 142.008ZM456.44 133.85V36.5H452.44V133.85H456.44ZM454.44 38.5H466.74V34.5H454.44V38.5ZM464.74 36.5V65H468.74V36.5H464.74ZM466.74 67H504.39V63H466.74V67ZM502.39 65V77.3H506.39V65H502.39ZM504.39 75.3H466.74V79.3H504.39V75.3ZM464.74 77.3V133.85H468.74V77.3H464.74ZM464.74 133.85C464.74 135.96 465.484 137.84 466.916 139.401L469.865 136.699C469.096 135.86 468.74 134.94 468.74 133.85H464.74ZM467.039 139.524C468.601 140.956 470.48 141.7 472.59 141.7V137.7C471.5 137.7 470.58 137.344 469.742 136.576L467.039 139.524ZM472.59 141.7H504.39V137.7H472.59V141.7ZM502.39 139.7V152H506.39V139.7H502.39ZM504.39 150H472.59V154H504.39V150ZM516.846 152H514.846V154H516.846V152ZM516.846 36.5V34.5H514.846V36.5H516.846ZM529.146 36.5H531.146V34.5H529.146V36.5ZM529.146 65H527.146V67H529.146V65ZM596.346 67.55L595.28 69.2425L595.317 69.2653L595.354 69.2865L596.346 67.55ZM602.946 74.15L601.21 75.1423L601.231 75.1794L601.254 75.2156L602.946 74.15ZM605.496 152V154H607.496V152H605.496ZM593.196 152H591.196V154H593.196V152ZM591.396 79.1L589.922 80.4514L589.981 80.5155L590.045 80.5743L591.396 79.1ZM530.946 79.1L532.298 80.5743L532.33 80.5449L532.36 80.5142L530.946 79.1ZM529.146 152V154H531.146V152H529.146ZM518.846 152V36.5H514.846V152H518.846ZM516.846 38.5H529.146V34.5H516.846V38.5ZM527.146 36.5V65H531.146V36.5H527.146ZM529.146 67H587.346V63H529.146V67ZM587.346 67C590.283 67 592.911 67.7505 595.28 69.2425L597.412 65.8575C594.381 63.9495 591.01 63 587.346 63V67ZM595.354 69.2865C597.844 70.7093 599.787 72.6523 601.21 75.1423L604.683 73.1577C602.905 70.0477 600.448 67.5907 597.338 65.8135L595.354 69.2865ZM601.254 75.2156C602.746 77.5852 603.496 80.2135 603.496 83.15H607.496C607.496 79.4865 606.547 76.1148 604.639 73.0844L601.254 75.2156ZM603.496 83.15V152H607.496V83.15H603.496ZM605.496 150H593.196V154H605.496V150ZM595.196 152V83.15H591.196V152H595.196ZM595.196 83.15C595.196 80.9784 594.353 79.097 592.748 77.6257L590.045 80.5743C590.84 81.303 591.196 82.1216 591.196 83.15H595.196ZM592.87 77.7485C591.399 76.1435 589.518 75.3 587.346 75.3V79.3C588.374 79.3 589.193 79.6565 589.922 80.4514L592.87 77.7485ZM587.346 75.3H535.146V79.3H587.346V75.3ZM535.146 75.3C532.981 75.3 531.082 76.136 529.532 77.6858L532.36 80.5142C533.21 79.664 534.111 79.3 535.146 79.3V75.3ZM529.595 77.6257C527.99 79.097 527.146 80.9784 527.146 83.15H531.146C531.146 82.1216 531.503 81.303 532.298 80.5743L529.595 77.6257ZM527.146 83.15V152H531.146V83.15H527.146ZM529.146 150H516.846V154H529.146V150Z" fill="#E4F1FF" mask="url(#path-5-outside-3_6_184)"/>
</svg>
