<svg xml:space="preserve" viewBox="371.33423999999997 479.15064 432 120.96000000000001" version="1.1" xmlns:xlink="http://www.w3.org/1999/xlink" xmlns="http://www.w3.org/2000/svg" style="max-height: 500px" width="432" height="120.96000000000001">
<desc>Created with Fabric.js 5.2.4</desc>
<defs>
</defs>
<rect fill="transparent" height="100%" width="100%" y="0" x="0"/>
<g id="0b58bba7-8333-4b1d-b7e5-61c49ef743a3" transform="matrix(1 0 0 1 540 540)">
<rect height="1080" width="1080" ry="0" rx="0" y="-540" x="-540" style="stroke: none; stroke-width: 1; stroke-dasharray: none; stroke-linecap: butt; stroke-dashoffset: 0; stroke-linejoin: miter; stroke-miterlimit: 4; fill: rgb(255,255,255); fill-rule: nonzero; opacity: 1; visibility: hidden;"/>
</g>
<g id="2922a4b5-8332-4fa8-aa3e-e6e37f1125a7" transform="matrix(1 0 0 1 540 540)">
</g>
<g transform="matrix(1 0 0 1 -115.33 50)">
<rect height="100" width="100" ry="0" rx="0" y="-50" x="-50" style="stroke: none; stroke-width: 1; stroke-dasharray: none; stroke-linecap: butt; stroke-dashoffset: 0; stroke-linejoin: miter; stroke-miterlimit: 4; fill: rgb(255,255,255); fill-opacity: 0; fill-rule: nonzero; opacity: 1;"/>
</g>
<g transform="matrix(1 0 0 1 374.67 540)">
<rect height="1080" width="1080" ry="0" rx="0" y="-540" x="-540" style="stroke: none; stroke-width: 1; stroke-dasharray: none; stroke-linecap: butt; stroke-dashoffset: 0; stroke-linejoin: miter; stroke-miterlimit: 4; fill: rgb(255,255,255); fill-rule: nonzero; opacity: 1; visibility: hidden;"/>
</g>
<g style="" transform="matrix(1 0 0 1 623.19 540)">
		<text style="stroke: none; stroke-width: 1; stroke-dasharray: none; stroke-linecap: butt; stroke-dashoffset: 0; stroke-linejoin: miter; stroke-miterlimit: 4; fill: rgb(189,197,248); fill-rule: nonzero; opacity: 1; white-space: pre;" font-weight="900" font-style="normal" font-size="74" font-family="Raleway" xml:space="preserve"><tspan y="23.25" x="-135.7">Auth 2.0</tspan></text>
</g>
<g transform="matrix(0.17 0 0 0.17 432.23 540)">
<path stroke-linecap="round" d="M 227.72 0 C 312.92 54.01 389.90999999999997 79.57 455.97 73.52 C 461.17 178.8 446.48 264.63 414.78000000000003 332.41999999999996 C 406.6455855136077 325.75423253105544 397.6306372334638 320.24229326906374 387.99 316.03999999999996 C 413.6 259.27 425.38 187.88999999999996 421.07 100.76999999999995 C 365.14 105.87999999999995 299.97 84.24999999999996 227.82999999999998 38.51999999999995 C 165.42 87.01 101 101.21 35.34 97.77 C 32.43000000000001 208.67000000000002 51.92 292.15999999999997 89.56 352.9 C 117.39 329.63 164.79000000000002 333.15 187.23000000000002 302.28999999999996 C 188.84000000000003 299.9 189.59000000000003 298.61999999999995 189.58 297.55999999999995 C 189.56 297.0199999999999 165.22000000000003 267.16999999999996 163.04000000000002 263.68999999999994 C 157.3 254.56999999999994 146.56000000000003 242.18999999999994 146.56000000000003 231.49999999999994 C 146.56000000000003 225.46999999999994 151.32000000000002 217.59999999999994 158.13000000000002 215.84999999999994 C 157.60000000000002 206.80999999999995 157.24000000000004 197.63999999999993 157.24000000000004 188.55999999999995 C 157.24000000000004 183.18999999999994 157.35000000000005 177.75999999999993 157.54000000000005 172.43999999999994 C 157.84000000000006 169.06999999999994 158.46000000000004 167.57999999999993 159.35000000000005 164.32999999999993 C 163.54796446011392 150.6756099950371 172.68183748996802 139.07466431231057 184.97000000000003 131.78999999999996 C 189.32000000000005 129.03999999999994 194.05000000000007 126.90999999999994 198.89000000000004 125.15999999999994 C 207.68000000000004 121.94999999999995 203.42000000000004 108.05999999999995 213.07000000000005 107.84999999999994 C 235.61000000000004 107.26999999999994 272.70000000000005 126.97999999999993 287.15000000000003 142.62999999999994 C 296.36 152.81999999999994 301.61 164.13999999999993 301.93 177.85999999999993 L 301.01 217.34999999999994 C 305.01 218.32999999999993 309.5 221.46999999999994 310.48 225.46999999999994 C 313.57 237.93999999999994 300.63 253.45999999999995 294.62 263.35999999999996 C 289.08 272.50999999999993 267.89 297.47999999999996 267.87 297.67999999999995 C 267.77 298.75999999999993 268.32 300.09999999999997 269.77 302.28999999999996 C 275.22999999999996 309.78 282.15 315.23999999999995 289.9 319.55999999999995 C 279.6366667452435 324.9385029700649 270.2469039446291 331.8400629172311 262.04999999999995 340.03 C 241.42999999999995 360.65 228.66999999999996 389.15999999999997 228.66999999999996 420.64 C 228.66999999999996 447.53 238.02999999999997 472.27 253.65999999999997 491.78 C 245.51999999999998 495.52 237.16999999999996 499.02 228.59999999999997 502.23999999999995 C 81.11 448.4 -6.13 316.51 0.34 69.98 C 77.89 74.05 153.99 57.28 227.72 0 z" transform="translate(-228.5, -251.12)" style="stroke: none; stroke-width: 1; stroke-dasharray: none; stroke-linecap: butt; stroke-dashoffset: 0; stroke-linejoin: miter; stroke-miterlimit: 4; fill: rgb(189,197,248); fill-rule: evenodd; opacity: 1;"/>
</g>
<g transform="matrix(0.17 0 0 0.17 451.65 569.13)">
<path stroke-linecap="round" d="M 342.67 329.6 C 392.94 329.6 433.70000000000005 370.36 433.70000000000005 420.64000000000004 C 433.70000000000005 470.9200000000001 392.94000000000005 511.68000000000006 342.6700000000001 511.68000000000006 C 292.3900000000001 511.68000000000006 251.63000000000005 470.9200000000001 251.63000000000005 420.64000000000004 C 251.63000000000005 370.36 292.39000000000004 329.6 342.6700000000001 329.6 z M 320.37 423.91 C 323.1392100557847 426.25982308918606 325.75147261190995 428.78857341525617 328.18999999999994 431.47999999999996 C 335.84 419.17 344 407.86 352.62 397.46000000000004 C 376.98 368.04 365.94 373.71000000000004 399.73 373.71000000000004 L 395.03000000000003 378.93000000000006 C 380.61 394.96000000000004 375.74 403.30000000000007 363.91 420.39000000000004 C 352.195957391851 437.3380944058929 341.5711974291504 455.01374034195425 332.0999999999999 473.3100000000002 L 329.18 478.96000000000004 L 326.48 473.20000000000005 C 321.53000000000003 462.55000000000007 315.58000000000004 452.78000000000003 308.49 444.04 C 301.41 435.31 295.21000000000004 429.61 285.6 423.01 C 290.01000000000005 408.55 310.97 415.95 320.37 423.90999999999997 z" transform="translate(-342.67, -420.64)" style="stroke: none; stroke-width: 1; stroke-dasharray: none; stroke-linecap: butt; stroke-dashoffset: 0; stroke-linejoin: miter; stroke-miterlimit: 4; fill: rgb(60,223,48); fill-rule: evenodd; opacity: 1;"/>
</g>
<g transform="matrix(NaN NaN NaN NaN 0 0)">
<g style="">
</g>
</g>
<g transform="matrix(NaN NaN NaN NaN 0 0)">
<g style="">
</g>
</g>
<g transform="matrix(NaN NaN NaN NaN 0 0)">
<g style="">
</g>
</g>
<g transform="matrix(NaN NaN NaN NaN 0 0)">
<g style="">
</g>
</g>
<g transform="matrix(NaN NaN NaN NaN 0 0)">
<g style="">
</g>
</g>
</svg>