<svg width="425" height="223" viewBox="0 0 425 223" fill="none" xmlns="http://www.w3.org/2000/svg">
<path fill-rule="evenodd" clip-rule="evenodd" d="M12.8421 33.5089L88.3838 1.76094C93.8875 -0.586979 100.363 -0.586979 105.866 1.76094L181.408 33.5089C189.178 36.7755 194.25 44.1255 194.25 52.1901V100.169C194.25 156.826 152.81 209.807 97.125 222.669C41.44 209.807 0 156.826 0 100.169V52.1901C0 44.1255 5.07208 36.7755 12.8421 33.5089ZM101.254 110.276H97.125V93.4543C99.7591 93.6468 102.31 95.113 103.681 97.8527L104.584 99.6572C106.614 103.714 104.846 108.319 101.254 110.276ZM136.896 110.276L106.644 57.8776C104.501 54.1661 100.867 52.1765 97.125 51.9088V20.4422L21.5833 52.1901V110.378H55.5481L39.2506 138.606C34.6318 146.606 40.4053 156.606 49.6429 156.606H57.3507C61.6379 156.606 65.5994 154.319 67.743 150.606L75.6431 136.922C77.7867 133.21 81.7482 130.922 86.0354 130.922H97.125V201.538C137.27 189.798 166.947 152.334 172.667 110.276H136.896ZM97.125 111.237H97.4297C98.8413 111.237 100.136 110.884 101.254 110.276H136.896L153.252 138.606C157.871 146.606 152.097 156.606 142.86 156.606H135.67C131.383 156.606 127.421 154.319 125.278 150.606L117.378 136.922C115.234 133.21 111.273 130.922 106.985 130.922H97.125V111.237ZM97.125 111.237H95.6238C94.293 111.237 93.0664 110.924 91.9937 110.378H97.125V111.237ZM91.9937 110.378C88.2718 108.483 86.4033 103.786 88.4694 99.6572L89.3724 97.8527C90.9505 94.6988 94.0927 93.2327 97.125 93.4543V51.9088C92.8018 51.5995 88.3349 53.5891 85.859 57.8776L55.5481 110.378H91.9937Z" fill="#333333"/>
<mask id="path-2-outside-1_4_155" maskUnits="userSpaceOnUse" x="241" y="132" width="147" height="62" fill="black">
<rect fill="white" x="241" y="132" width="147" height="62"/>
<path d="M243.56 192V170.4C243.56 168.587 243.987 166.96 244.84 165.52C245.693 164.027 246.84 162.853 248.28 162C249.773 161.147 251.427 160.72 253.24 160.72H292.04C292.893 160.72 293.613 160.427 294.2 159.84C294.84 159.2 295.16 158.453 295.16 157.6V144.08C295.16 143.227 294.84 142.507 294.2 141.92C293.613 141.28 292.893 140.96 292.04 140.96H253.24C252.387 140.96 251.64 141.28 251 141.92C250.413 142.507 250.12 143.227 250.12 144.08V146.32H243.56V144.08C243.56 142.267 243.987 140.64 244.84 139.2C245.693 137.707 246.84 136.533 248.28 135.68C249.773 134.773 251.427 134.32 253.24 134.32H292.04C293.8 134.32 295.4 134.773 296.84 135.68C298.333 136.533 299.507 137.707 300.36 139.2C301.267 140.64 301.72 142.267 301.72 144.08V157.6C301.72 159.36 301.267 160.987 300.36 162.48C299.507 163.92 298.333 165.093 296.84 166C295.4 166.853 293.8 167.28 292.04 167.28H253.24C252.387 167.28 251.64 167.6 251 168.24C250.413 168.827 250.12 169.547 250.12 170.4V182.32C250.12 183.173 250.413 183.92 251 184.56C251.64 185.147 252.387 185.44 253.24 185.44H301.72V192H243.56ZM309.726 192V185.44H316.286V192H309.726ZM336.756 192C334.942 192 333.289 191.573 331.796 190.72C330.356 189.813 329.209 188.64 328.356 187.2C327.502 185.707 327.076 184.08 327.076 182.32V144.16C327.076 142.347 327.502 140.72 328.356 139.28C329.209 137.787 330.356 136.613 331.796 135.76C333.289 134.853 334.942 134.4 336.756 134.4H375.556C377.316 134.4 378.916 134.853 380.356 135.76C381.849 136.613 383.022 137.787 383.876 139.28C384.782 140.72 385.236 142.347 385.236 144.16V182.32C385.236 184.08 384.782 185.707 383.876 187.2C383.022 188.64 381.849 189.813 380.356 190.72C378.916 191.573 377.316 192 375.556 192H336.756ZM334.436 185.44H375.556C376.409 185.44 377.129 185.147 377.716 184.56C378.356 183.92 378.676 183.173 378.676 182.32V148.96L334.436 185.44ZM333.636 177.52L377.796 141.04H336.756C335.902 141.04 335.156 141.36 334.516 142C333.929 142.587 333.636 143.307 333.636 144.16V177.52Z"/>
</mask>
<path d="M243.56 192V170.4C243.56 168.587 243.987 166.96 244.84 165.52C245.693 164.027 246.84 162.853 248.28 162C249.773 161.147 251.427 160.72 253.24 160.72H292.04C292.893 160.72 293.613 160.427 294.2 159.84C294.84 159.2 295.16 158.453 295.16 157.6V144.08C295.16 143.227 294.84 142.507 294.2 141.92C293.613 141.28 292.893 140.96 292.04 140.96H253.24C252.387 140.96 251.64 141.28 251 141.92C250.413 142.507 250.12 143.227 250.12 144.08V146.32H243.56V144.08C243.56 142.267 243.987 140.64 244.84 139.2C245.693 137.707 246.84 136.533 248.28 135.68C249.773 134.773 251.427 134.32 253.24 134.32H292.04C293.8 134.32 295.4 134.773 296.84 135.68C298.333 136.533 299.507 137.707 300.36 139.2C301.267 140.64 301.72 142.267 301.72 144.08V157.6C301.72 159.36 301.267 160.987 300.36 162.48C299.507 163.92 298.333 165.093 296.84 166C295.4 166.853 293.8 167.28 292.04 167.28H253.24C252.387 167.28 251.64 167.6 251 168.24C250.413 168.827 250.12 169.547 250.12 170.4V182.32C250.12 183.173 250.413 183.92 251 184.56C251.64 185.147 252.387 185.44 253.24 185.44H301.72V192H243.56ZM309.726 192V185.44H316.286V192H309.726ZM336.756 192C334.942 192 333.289 191.573 331.796 190.72C330.356 189.813 329.209 188.64 328.356 187.2C327.502 185.707 327.076 184.08 327.076 182.32V144.16C327.076 142.347 327.502 140.72 328.356 139.28C329.209 137.787 330.356 136.613 331.796 135.76C333.289 134.853 334.942 134.4 336.756 134.4H375.556C377.316 134.4 378.916 134.853 380.356 135.76C381.849 136.613 383.022 137.787 383.876 139.28C384.782 140.72 385.236 142.347 385.236 144.16V182.32C385.236 184.08 384.782 185.707 383.876 187.2C383.022 188.64 381.849 189.813 380.356 190.72C378.916 191.573 377.316 192 375.556 192H336.756ZM334.436 185.44H375.556C376.409 185.44 377.129 185.147 377.716 184.56C378.356 183.92 378.676 183.173 378.676 182.32V148.96L334.436 185.44ZM333.636 177.52L377.796 141.04H336.756C335.902 141.04 335.156 141.36 334.516 142C333.929 142.587 333.636 143.307 333.636 144.16V177.52Z" fill="#333333"/>
<path d="M243.56 192H241.56V194H243.56V192ZM244.84 165.52L246.561 166.54L246.569 166.526L246.576 166.512L244.84 165.52ZM248.28 162L247.288 160.264L247.274 160.271L247.26 160.279L248.28 162ZM294.2 159.84L295.614 161.254L295.614 161.254L294.2 159.84ZM294.2 141.92L292.726 143.271L292.784 143.336L292.849 143.394L294.2 141.92ZM251 141.92L249.586 140.506L249.586 140.506L251 141.92ZM250.12 146.32V148.32H252.12V146.32H250.12ZM243.56 146.32H241.56V148.32H243.56V146.32ZM244.84 139.2L246.561 140.22L246.569 140.206L246.576 140.192L244.84 139.2ZM248.28 135.68L249.3 137.401L249.309 137.395L249.318 137.39L248.28 135.68ZM296.84 135.68L295.774 137.372L295.811 137.395L295.848 137.416L296.84 135.68ZM300.36 139.2L298.624 140.192L298.645 140.229L298.668 140.266L300.36 139.2ZM300.36 162.48L298.65 161.442L298.645 161.451L298.639 161.46L300.36 162.48ZM296.84 166L297.86 167.721L297.869 167.715L297.878 167.71L296.84 166ZM251 168.24L249.586 166.826L249.586 166.826L251 168.24ZM251 184.56L249.526 185.911L249.584 185.976L249.649 186.034L251 184.56ZM301.72 185.44H303.72V183.44H301.72V185.44ZM301.72 192V194H303.72V192H301.72ZM245.56 192V170.4H241.56V192H245.56ZM245.56 170.4C245.56 168.915 245.905 167.645 246.561 166.54L243.119 164.5C242.068 166.275 241.56 168.259 241.56 170.4H245.56ZM246.576 166.512C247.263 165.311 248.166 164.392 249.3 163.721L247.26 160.279C245.514 161.314 244.124 162.742 243.104 164.528L246.576 166.512ZM249.272 163.736C250.447 163.065 251.755 162.72 253.24 162.72V158.72C251.098 158.72 249.1 159.228 247.288 160.264L249.272 163.736ZM253.24 162.72H292.04V158.72H253.24V162.72ZM292.04 162.72C293.407 162.72 294.641 162.228 295.614 161.254L292.786 158.426C292.586 158.626 292.38 158.72 292.04 158.72V162.72ZM295.614 161.254C296.604 160.264 297.16 159.018 297.16 157.6H293.16C293.16 157.888 293.076 158.136 292.786 158.426L295.614 161.254ZM297.16 157.6V144.08H293.16V157.6H297.16ZM297.16 144.08C297.16 142.655 296.597 141.404 295.551 140.446L292.849 143.394C293.083 143.61 293.16 143.798 293.16 144.08H297.16ZM295.674 140.569C294.716 139.523 293.465 138.96 292.04 138.96V142.96C292.322 142.96 292.51 143.037 292.726 143.271L295.674 140.569ZM292.04 138.96H253.24V142.96H292.04V138.96ZM253.24 138.96C251.822 138.96 250.576 139.516 249.586 140.506L252.414 143.334C252.704 143.044 252.952 142.96 253.24 142.96V138.96ZM249.586 140.506C248.612 141.479 248.12 142.713 248.12 144.08H252.12C252.12 143.74 252.214 143.534 252.414 143.334L249.586 140.506ZM248.12 144.08V146.32H252.12V144.08H248.12ZM250.12 144.32H243.56V148.32H250.12V144.32ZM245.56 146.32V144.08H241.56V146.32H245.56ZM245.56 144.08C245.56 142.595 245.905 141.325 246.561 140.22L243.119 138.18C242.068 139.955 241.56 141.939 241.56 144.08H245.56ZM246.576 140.192C247.263 138.991 248.166 138.072 249.3 137.401L247.26 133.959C245.514 134.994 244.124 136.422 243.104 138.208L246.576 140.192ZM249.318 137.39C250.486 136.68 251.778 136.32 253.24 136.32V132.32C251.075 132.32 249.06 132.866 247.242 133.97L249.318 137.39ZM253.24 136.32H292.04V132.32H253.24V136.32ZM292.04 136.32C293.437 136.32 294.665 136.674 295.774 137.372L297.906 133.988C296.135 132.873 294.163 132.32 292.04 132.32V136.32ZM295.848 137.416C297.031 138.093 297.947 139.009 298.624 140.192L302.096 138.208C301.066 136.404 299.636 134.974 297.832 133.944L295.848 137.416ZM298.668 140.266C299.36 141.365 299.72 142.618 299.72 144.08H303.72C303.72 141.915 303.173 139.915 302.052 138.134L298.668 140.266ZM299.72 144.08V157.6H303.72V144.08H299.72ZM299.72 157.6C299.72 158.997 299.366 160.264 298.65 161.442L302.07 163.518C303.168 161.709 303.72 159.723 303.72 157.6H299.72ZM298.639 161.46C297.961 162.605 297.027 163.547 295.802 164.29L297.878 167.71C299.639 166.64 301.052 165.235 302.081 163.5L298.639 161.46ZM295.82 164.279C294.705 164.94 293.46 165.28 292.04 165.28V169.28C294.14 169.28 296.095 168.766 297.86 167.721L295.82 164.279ZM292.04 165.28H253.24V169.28H292.04V165.28ZM253.24 165.28C251.822 165.28 250.576 165.836 249.586 166.826L252.414 169.654C252.704 169.364 252.952 169.28 253.24 169.28V165.28ZM249.586 166.826C248.612 167.799 248.12 169.033 248.12 170.4H252.12C252.12 170.06 252.214 169.854 252.414 169.654L249.586 166.826ZM248.12 170.4V182.32H252.12V170.4H248.12ZM248.12 182.32C248.12 183.683 248.607 184.91 249.526 185.911L252.474 183.209C252.219 182.93 252.12 182.663 252.12 182.32H248.12ZM249.649 186.034C250.65 186.953 251.877 187.44 253.24 187.44V183.44C252.897 183.44 252.63 183.341 252.351 183.086L249.649 186.034ZM253.24 187.44H301.72V183.44H253.24V187.44ZM299.72 185.44V192H303.72V185.44H299.72ZM301.72 190H243.56V194H301.72V190ZM309.726 192H307.726V194H309.726V192ZM309.726 185.44V183.44H307.726V185.44H309.726ZM316.286 185.44H318.286V183.44H316.286V185.44ZM316.286 192V194H318.286V192H316.286ZM311.726 192V185.44H307.726V192H311.726ZM309.726 187.44H316.286V183.44H309.726V187.44ZM314.286 185.44V192H318.286V185.44H314.286ZM316.286 190H309.726V194H316.286V190ZM331.796 190.72L330.73 192.412L330.766 192.435L330.803 192.456L331.796 190.72ZM328.356 187.2L326.619 188.192L326.627 188.206L326.635 188.22L328.356 187.2ZM328.356 139.28L330.076 140.3L330.084 140.286L330.092 140.272L328.356 139.28ZM331.796 135.76L332.815 137.481L332.824 137.475L332.834 137.47L331.796 135.76ZM380.356 135.76L379.29 137.452L379.326 137.475L379.363 137.496L380.356 135.76ZM383.876 139.28L382.139 140.272L382.16 140.309L382.183 140.346L383.876 139.28ZM383.876 187.2L382.166 186.162L382.161 186.171L382.155 186.18L383.876 187.2ZM380.356 190.72L381.375 192.441L381.384 192.435L381.394 192.43L380.356 190.72ZM334.436 185.44L333.163 183.897L328.867 187.44H334.436V185.44ZM377.716 184.56L379.13 185.974L379.13 185.974L377.716 184.56ZM378.676 148.96H380.676V144.719L377.403 147.417L378.676 148.96ZM333.636 177.52H331.636V181.766L334.909 179.062L333.636 177.52ZM377.796 141.04L379.069 142.582L383.357 139.04H377.796V141.04ZM334.516 142L335.93 143.414L335.93 143.414L334.516 142ZM336.756 190C335.271 190 333.962 189.655 332.788 188.984L330.803 192.456C332.615 193.492 334.614 194 336.756 194V190ZM332.861 189.028C331.685 188.287 330.765 187.343 330.076 186.18L326.635 188.22C327.653 189.937 329.026 191.34 330.73 192.412L332.861 189.028ZM330.092 186.208C329.416 185.024 329.076 183.74 329.076 182.32H325.076C325.076 184.42 325.589 186.389 326.619 188.192L330.092 186.208ZM329.076 182.32V144.16H325.076V182.32H329.076ZM329.076 144.16C329.076 142.675 329.421 141.405 330.076 140.3L326.635 138.26C325.584 140.035 325.076 142.019 325.076 144.16H329.076ZM330.092 140.272C330.779 139.071 331.682 138.152 332.815 137.481L330.776 134.039C329.03 135.074 327.639 136.502 326.619 138.288L330.092 140.272ZM332.834 137.47C334.002 136.76 335.294 136.4 336.756 136.4V132.4C334.591 132.4 332.576 132.946 330.758 134.05L332.834 137.47ZM336.756 136.4H375.556V132.4H336.756V136.4ZM375.556 136.4C376.952 136.4 378.18 136.754 379.29 137.452L381.421 134.068C379.651 132.953 377.679 132.4 375.556 132.4V136.4ZM379.363 137.496C380.547 138.173 381.463 139.089 382.139 140.272L385.612 138.288C384.582 136.484 383.151 135.054 381.348 134.024L379.363 137.496ZM382.183 140.346C382.876 141.445 383.236 142.698 383.236 144.16H387.236C387.236 141.995 386.689 139.995 385.568 138.214L382.183 140.346ZM383.236 144.16V182.32H387.236V144.16H383.236ZM383.236 182.32C383.236 183.717 382.881 184.984 382.166 186.162L385.585 188.238C386.683 186.429 387.236 184.443 387.236 182.32H383.236ZM382.155 186.18C381.477 187.325 380.543 188.267 379.318 189.01L381.394 192.43C383.155 191.36 384.568 189.955 385.596 188.22L382.155 186.18ZM379.336 188.999C378.221 189.66 376.976 190 375.556 190V194C377.655 194 379.61 193.486 381.375 192.441L379.336 188.999ZM375.556 190H336.756V194H375.556V190ZM334.436 187.44H375.556V183.44H334.436V187.44ZM375.556 187.44C376.922 187.44 378.156 186.948 379.13 185.974L376.301 183.146C376.102 183.346 375.895 183.44 375.556 183.44V187.44ZM379.13 185.974C380.12 184.984 380.676 183.738 380.676 182.32H376.676C376.676 182.608 376.592 182.856 376.301 183.146L379.13 185.974ZM380.676 182.32V148.96H376.676V182.32H380.676ZM377.403 147.417L333.163 183.897L335.708 186.983L379.948 150.503L377.403 147.417ZM334.909 179.062L379.069 142.582L376.522 139.498L332.362 175.978L334.909 179.062ZM377.796 139.04H336.756V143.04H377.796V139.04ZM336.756 139.04C335.337 139.04 334.091 139.596 333.101 140.586L335.93 143.414C336.22 143.124 336.467 143.04 336.756 143.04V139.04ZM333.101 140.586C332.128 141.559 331.636 142.793 331.636 144.16H335.636C335.636 143.82 335.73 143.614 335.93 143.414L333.101 140.586ZM331.636 144.16V177.52H335.636V144.16H331.636Z" fill="#333333" mask="url(#path-2-outside-1_4_155)"/>
<mask id="path-4-outside-2_4_155" maskUnits="userSpaceOnUse" x="219" y="36" width="207" height="66" fill="black">
<rect fill="white" x="219" y="36" width="207" height="66"/>
<path d="M221.64 100V52C221.64 50.24 222.067 48.64 222.92 47.2C223.773 45.7067 224.92 44.5333 226.36 43.68C227.853 42.8267 229.48 42.4 231.24 42.4H269.64C271.4 42.4 273 42.8267 274.44 43.68C275.933 44.5333 277.107 45.7067 277.96 47.2C278.813 48.64 279.24 50.24 279.24 52V100H272.76V78.96H228.12V100H221.64ZM228.12 72.48H272.76V52C272.76 51.1467 272.44 50.4267 271.8 49.84C271.213 49.2 270.493 48.88 269.64 48.88H231.24C230.387 48.88 229.64 49.2 229 49.84C228.413 50.4267 228.12 51.1467 228.12 52V72.48ZM297.795 100C296.035 100 294.408 99.5733 292.915 98.72C291.475 97.8133 290.302 96.64 289.395 95.2C288.542 93.7067 288.115 92.08 288.115 90.32V53.6H294.675V90.32C294.675 91.1733 294.968 91.92 295.555 92.56C296.195 93.1467 296.942 93.44 297.795 93.44H325.635C326.488 93.44 327.235 93.1467 327.875 92.56C328.515 91.92 328.835 91.1733 328.835 90.32V53.6H335.395V90.32C335.395 92.08 334.942 93.7067 334.035 95.2C333.182 96.64 332.008 97.8133 330.515 98.72C329.075 99.5733 327.448 100 325.635 100H297.795ZM352.248 100C350.435 100 348.781 99.5733 347.288 98.72C345.848 97.8133 344.701 96.64 343.848 95.2C342.995 93.7067 342.568 92.08 342.568 90.32V38.4H349.128V53.6H369.208V60.16H349.128V90.32C349.128 91.1733 349.421 91.92 350.008 92.56C350.648 93.1467 351.395 93.44 352.248 93.44H369.208V100H352.248ZM375.851 100V38.4H382.411V53.6H413.451C415.211 53.6 416.811 54.0533 418.251 54.96C419.745 55.8133 420.918 56.9867 421.771 58.48C422.678 59.92 423.131 61.52 423.131 63.28V100H416.571V63.28C416.571 62.4267 416.251 61.7067 415.611 61.12C415.025 60.48 414.305 60.16 413.451 60.16H385.611C384.758 60.16 384.011 60.48 383.371 61.12C382.731 61.7067 382.411 62.4267 382.411 63.28V100H375.851Z"/>
</mask>
<path d="M221.64 100V52C221.64 50.24 222.067 48.64 222.92 47.2C223.773 45.7067 224.92 44.5333 226.36 43.68C227.853 42.8267 229.48 42.4 231.24 42.4H269.64C271.4 42.4 273 42.8267 274.44 43.68C275.933 44.5333 277.107 45.7067 277.96 47.2C278.813 48.64 279.24 50.24 279.24 52V100H272.76V78.96H228.12V100H221.64ZM228.12 72.48H272.76V52C272.76 51.1467 272.44 50.4267 271.8 49.84C271.213 49.2 270.493 48.88 269.64 48.88H231.24C230.387 48.88 229.64 49.2 229 49.84C228.413 50.4267 228.12 51.1467 228.12 52V72.48ZM297.795 100C296.035 100 294.408 99.5733 292.915 98.72C291.475 97.8133 290.302 96.64 289.395 95.2C288.542 93.7067 288.115 92.08 288.115 90.32V53.6H294.675V90.32C294.675 91.1733 294.968 91.92 295.555 92.56C296.195 93.1467 296.942 93.44 297.795 93.44H325.635C326.488 93.44 327.235 93.1467 327.875 92.56C328.515 91.92 328.835 91.1733 328.835 90.32V53.6H335.395V90.32C335.395 92.08 334.942 93.7067 334.035 95.2C333.182 96.64 332.008 97.8133 330.515 98.72C329.075 99.5733 327.448 100 325.635 100H297.795ZM352.248 100C350.435 100 348.781 99.5733 347.288 98.72C345.848 97.8133 344.701 96.64 343.848 95.2C342.995 93.7067 342.568 92.08 342.568 90.32V38.4H349.128V53.6H369.208V60.16H349.128V90.32C349.128 91.1733 349.421 91.92 350.008 92.56C350.648 93.1467 351.395 93.44 352.248 93.44H369.208V100H352.248ZM375.851 100V38.4H382.411V53.6H413.451C415.211 53.6 416.811 54.0533 418.251 54.96C419.745 55.8133 420.918 56.9867 421.771 58.48C422.678 59.92 423.131 61.52 423.131 63.28V100H416.571V63.28C416.571 62.4267 416.251 61.7067 415.611 61.12C415.025 60.48 414.305 60.16 413.451 60.16H385.611C384.758 60.16 384.011 60.48 383.371 61.12C382.731 61.7067 382.411 62.4267 382.411 63.28V100H375.851Z" fill="#333333"/>
<path d="M221.64 100H219.64V102H221.64V100ZM222.92 47.2L224.641 48.2196L224.649 48.206L224.656 48.1923L222.92 47.2ZM226.36 43.68L225.368 41.9435L225.354 41.9514L225.34 41.9594L226.36 43.68ZM274.44 43.68L273.42 45.4006L273.434 45.4086L273.448 45.4165L274.44 43.68ZM277.96 47.2L276.224 48.1923L276.231 48.206L276.239 48.2196L277.96 47.2ZM279.24 100V102H281.24V100H279.24ZM272.76 100H270.76V102H272.76V100ZM272.76 78.96H274.76V76.96H272.76V78.96ZM228.12 78.96V76.96H226.12V78.96H228.12ZM228.12 100V102H230.12V100H228.12ZM228.12 72.48H226.12V74.48H228.12V72.48ZM272.76 72.48V74.48H274.76V72.48H272.76ZM271.8 49.84L270.326 51.1914L270.384 51.2555L270.449 51.3143L271.8 49.84ZM229 49.84L230.414 51.2542L230.414 51.2542L229 49.84ZM223.64 100V52H219.64V100H223.64ZM223.64 52C223.64 50.5795 223.98 49.3348 224.641 48.2196L221.199 46.1804C220.154 47.9452 219.64 49.9005 219.64 52H223.64ZM224.656 48.1923C225.343 46.991 226.246 46.0723 227.38 45.4006L225.34 41.9594C223.594 42.9944 222.204 44.4223 221.184 46.2077L224.656 48.1923ZM227.352 45.4165C228.536 44.74 229.82 44.4 231.24 44.4V40.4C229.14 40.4 227.171 40.9133 225.368 41.9435L227.352 45.4165ZM231.24 44.4H269.64V40.4H231.24V44.4ZM269.64 44.4C271.06 44.4 272.305 44.7397 273.42 45.4006L275.46 41.9594C273.695 40.9136 271.74 40.4 269.64 40.4V44.4ZM273.448 45.4165C274.631 46.0926 275.547 47.009 276.224 48.1923L279.696 46.2077C278.666 44.4043 277.236 42.974 275.432 41.9435L273.448 45.4165ZM276.239 48.2196C276.9 49.3348 277.24 50.5795 277.24 52H281.24C281.24 49.9005 280.726 47.9452 279.681 46.1804L276.239 48.2196ZM277.24 52V100H281.24V52H277.24ZM279.24 98H272.76V102H279.24V98ZM274.76 100V78.96H270.76V100H274.76ZM272.76 76.96H228.12V80.96H272.76V76.96ZM226.12 78.96V100H230.12V78.96H226.12ZM228.12 98H221.64V102H228.12V98ZM228.12 74.48H272.76V70.48H228.12V74.48ZM274.76 72.48V52H270.76V72.48H274.76ZM274.76 52C274.76 50.575 274.197 49.3237 273.151 48.3657L270.449 51.3143C270.683 51.5297 270.76 51.7183 270.76 52H274.76ZM273.274 48.4885C272.316 47.4435 271.065 46.88 269.64 46.88V50.88C269.922 50.88 270.11 50.9565 270.326 51.1914L273.274 48.4885ZM269.64 46.88H231.24V50.88H269.64V46.88ZM231.24 46.88C229.822 46.88 228.576 47.436 227.586 48.4258L230.414 51.2542C230.704 50.964 230.952 50.88 231.24 50.88V46.88ZM227.586 48.4258C226.612 49.3993 226.12 50.6332 226.12 52H230.12C230.12 51.6602 230.214 51.454 230.414 51.2542L227.586 48.4258ZM226.12 52V72.48H230.12V52H226.12ZM292.915 98.72L291.849 100.412L291.886 100.435L291.923 100.456L292.915 98.72ZM289.395 95.2L287.659 96.1923L287.68 96.2294L287.703 96.2656L289.395 95.2ZM288.115 53.6V51.6H286.115V53.6H288.115ZM294.675 53.6H296.675V51.6H294.675V53.6ZM295.555 92.56L294.081 93.9114L294.139 93.9755L294.204 94.0343L295.555 92.56ZM327.875 92.56L329.226 94.0343L329.258 94.0049L329.289 93.9742L327.875 92.56ZM328.835 53.6V51.6H326.835V53.6H328.835ZM335.395 53.6H337.395V51.6H335.395V53.6ZM334.035 95.2L332.325 94.162L332.32 94.1712L332.314 94.1804L334.035 95.2ZM330.515 98.72L331.535 100.441L331.544 100.435L331.553 100.43L330.515 98.72ZM297.795 98C296.375 98 295.091 97.66 293.907 96.9835L291.923 100.456C293.726 101.487 295.695 102 297.795 102V98ZM293.981 97.0275C292.794 96.2803 291.835 95.3212 291.087 94.1344L287.703 96.2656C288.769 97.9588 290.156 99.3464 291.849 100.412L293.981 97.0275ZM291.131 94.2077C290.455 93.0239 290.115 91.7404 290.115 90.32H286.115C286.115 92.4196 286.628 94.3895 287.659 96.1923L291.131 94.2077ZM290.115 90.32V53.6H286.115V90.32H290.115ZM288.115 55.6H294.675V51.6H288.115V55.6ZM292.675 53.6V90.32H296.675V53.6H292.675ZM292.675 90.32C292.675 91.6833 293.162 92.9097 294.081 93.9114L297.029 91.2086C296.774 90.9303 296.675 90.6634 296.675 90.32H292.675ZM294.204 94.0343C295.205 94.9526 296.432 95.44 297.795 95.44V91.44C297.452 91.44 297.185 91.3408 296.906 91.0857L294.204 94.0343ZM297.795 95.44H325.635V91.44H297.795V95.44ZM325.635 95.44C326.998 95.44 328.225 94.9526 329.226 94.0343L326.524 91.0857C326.245 91.3408 325.978 91.44 325.635 91.44V95.44ZM329.289 93.9742C330.279 92.9844 330.835 91.7384 330.835 90.32H326.835C326.835 90.6082 326.751 90.8556 326.461 91.1458L329.289 93.9742ZM330.835 90.32V53.6H326.835V90.32H330.835ZM328.835 55.6H335.395V51.6H328.835V55.6ZM333.395 53.6V90.32H337.395V53.6H333.395ZM333.395 90.32C333.395 91.7168 333.041 92.984 332.325 94.162L335.745 96.238C336.843 94.4293 337.395 92.4432 337.395 90.32H333.395ZM332.314 94.1804C331.636 95.3253 330.702 96.2665 329.477 97.0104L331.553 100.43C333.314 99.3602 334.727 97.9547 335.756 96.2196L332.314 94.1804ZM329.495 96.9994C328.39 97.6547 327.12 98 325.635 98V102C327.776 102 329.76 101.492 331.535 100.441L329.495 96.9994ZM325.635 98H297.795V102H325.635V98ZM347.288 98.72L346.222 100.412L346.259 100.435L346.296 100.456L347.288 98.72ZM343.848 95.2L342.112 96.1923L342.119 96.206L342.128 96.2196L343.848 95.2ZM342.568 38.4V36.4H340.568V38.4H342.568ZM349.128 38.4H351.128V36.4H349.128V38.4ZM349.128 53.6H347.128V55.6H349.128V53.6ZM369.208 53.6H371.208V51.6H369.208V53.6ZM369.208 60.16V62.16H371.208V60.16H369.208ZM349.128 60.16V58.16H347.128V60.16H349.128ZM350.008 92.56L348.534 93.9114L348.593 93.9755L348.657 94.0343L350.008 92.56ZM369.208 93.44H371.208V91.44H369.208V93.44ZM369.208 100V102H371.208V100H369.208ZM352.248 98C350.763 98 349.455 97.6547 348.28 96.9835L346.296 100.456C348.108 101.492 350.106 102 352.248 102V98ZM348.354 97.0275C347.178 96.2871 346.257 95.3426 345.569 94.1804L342.128 96.2196C343.145 97.9374 344.519 99.3396 346.222 100.412L348.354 97.0275ZM345.585 94.2077C344.908 93.0239 344.568 91.7404 344.568 90.32H340.568C340.568 92.4196 341.081 94.3895 342.112 96.1923L345.585 94.2077ZM344.568 90.32V38.4H340.568V90.32H344.568ZM342.568 40.4H349.128V36.4H342.568V40.4ZM347.128 38.4V53.6H351.128V38.4H347.128ZM349.128 55.6H369.208V51.6H349.128V55.6ZM367.208 53.6V60.16H371.208V53.6H367.208ZM369.208 58.16H349.128V62.16H369.208V58.16ZM347.128 60.16V90.32H351.128V60.16H347.128ZM347.128 90.32C347.128 91.6833 347.616 92.9097 348.534 93.9114L351.482 91.2086C351.227 90.9303 351.128 90.6634 351.128 90.32H347.128ZM348.657 94.0343C349.658 94.9526 350.885 95.44 352.248 95.44V91.44C351.905 91.44 351.638 91.3408 351.36 91.0857L348.657 94.0343ZM352.248 95.44H369.208V91.44H352.248V95.44ZM367.208 93.44V100H371.208V93.44H367.208ZM369.208 98H352.248V102H369.208V98ZM375.851 100H373.851V102H375.851V100ZM375.851 38.4V36.4H373.851V38.4H375.851ZM382.411 38.4H384.411V36.4H382.411V38.4ZM382.411 53.6H380.411V55.6H382.411V53.6ZM418.251 54.96L417.186 56.6525L417.222 56.6753L417.259 56.6965L418.251 54.96ZM421.771 58.48L420.035 59.4723L420.056 59.5094L420.079 59.5456L421.771 58.48ZM423.131 100V102H425.131V100H423.131ZM416.571 100H414.571V102H416.571V100ZM415.611 61.12L414.137 62.4714L414.196 62.5355L414.26 62.5943L415.611 61.12ZM383.371 61.12L384.723 62.5943L384.755 62.5649L384.785 62.5342L383.371 61.12ZM382.411 100V102H384.411V100H382.411ZM377.851 100V38.4H373.851V100H377.851ZM375.851 40.4H382.411V36.4H375.851V40.4ZM380.411 38.4V53.6H384.411V38.4H380.411ZM382.411 55.6H413.451V51.6H382.411V55.6ZM413.451 55.6C414.848 55.6 416.076 55.9539 417.186 56.6525L419.317 53.2675C417.546 52.1528 415.575 51.6 413.451 51.6V55.6ZM417.259 56.6965C418.442 57.3726 419.359 58.289 420.035 59.4723L423.508 57.4877C422.477 55.6843 421.047 54.254 419.244 53.2235L417.259 56.6965ZM420.079 59.5456C420.777 60.6552 421.131 61.8835 421.131 63.28H425.131C425.131 61.1565 424.578 59.1848 423.464 57.4144L420.079 59.5456ZM421.131 63.28V100H425.131V63.28H421.131ZM423.131 98H416.571V102H423.131V98ZM418.571 100V63.28H414.571V100H418.571ZM418.571 63.28C418.571 61.855 418.008 60.6037 416.963 59.6457L414.26 62.5943C414.495 62.8097 414.571 62.9983 414.571 63.28H418.571ZM417.086 59.7685C416.128 58.7235 414.876 58.16 413.451 58.16V62.16C413.733 62.16 413.922 62.2365 414.137 62.4714L417.086 59.7685ZM413.451 58.16H385.611V62.16H413.451V58.16ZM385.611 58.16C384.193 58.16 382.947 58.716 381.957 59.7058L384.785 62.5342C385.076 62.244 385.323 62.16 385.611 62.16V58.16ZM382.02 59.6457C380.975 60.6037 380.411 61.855 380.411 63.28H384.411C384.411 62.9983 384.488 62.8097 384.723 62.5943L382.02 59.6457ZM380.411 63.28V100H384.411V63.28H380.411ZM382.411 98H375.851V102H382.411V98Z" fill="#333333" mask="url(#path-4-outside-2_4_155)"/>
</svg>
